<svg xmlns="http://www.w3.org/2000/svg" viewBox="0 0 280 80" fill="none" stroke="currentColor" stroke-width="1" stroke-linecap="round" aria-hidden="true">
  <g opacity="0.4">
    <!-- Row 1 -->
    <line x1="0" y1="16" x2="280" y2="16" />
    <circle cx="32"  cy="16" r="2" fill="currentColor" stroke="none" />
    <circle cx="84"  cy="16" r="2" fill="currentColor" stroke="none" />
    <circle cx="121" cy="16" r="2" fill="currentColor" stroke="none" />
    <circle cx="178" cy="16" r="2" fill="currentColor" stroke="none" />
    <circle cx="225" cy="16" r="2" fill="currentColor" stroke="none" />
    <circle cx="259" cy="16" r="2" fill="currentColor" stroke="none" />

    <!-- Row 2 -->
    <line x1="0" y1="40" x2="280" y2="40" />
    <circle cx="20"  cy="40" r="2" fill="currentColor" stroke="none" />
    <circle cx="67"  cy="40" r="2" fill="currentColor" stroke="none" />
    <circle cx="112" cy="40" r="2" fill="currentColor" stroke="none" />
    <circle cx="155" cy="40" r="2" fill="currentColor" stroke="none" />
    <circle cx="208" cy="40" r="2" fill="currentColor" stroke="none" />
    <circle cx="248" cy="40" r="2" fill="currentColor" stroke="none" />
    <circle cx="271" cy="40" r="2" fill="currentColor" stroke="none" />

    <!-- Row 3 -->
    <line x1="0" y1="64" x2="280" y2="64" />
    <circle cx="44"  cy="64" r="2" fill="currentColor" stroke="none" />
    <circle cx="92"  cy="64" r="2" fill="currentColor" stroke="none" />
    <circle cx="138" cy="64" r="2" fill="currentColor" stroke="none" />
    <circle cx="191" cy="64" r="2" fill="currentColor" stroke="none" />
    <circle cx="236" cy="64" r="2" fill="currentColor" stroke="none" />
  </g>
</svg>
